<svg width="388" height="41" viewBox="0 0 388 41" fill="none" xmlns="http://www.w3.org/2000/svg">
<path d="M346.243 38.1383C346.841 38.7744 347.571 39.2708 348.381 39.5925C349.191 39.9142 350.062 40.0534 350.932 40.0003C353.482 39.8662 355.98 39.2259 358.282 38.1164C361.732 39.6692 365.555 40.1883 369.292 39.6114C373.028 39.0345 376.52 37.3861 379.346 34.8644C382.172 32.3426 384.214 29.0547 385.224 25.3959C386.235 21.7371 386.172 17.8629 385.044 14.2391C387.901 9.35406 388.86 4.90718 386.505 2.23467C385.82 1.43705 384.951 0.820259 383.974 0.438351C382.997 0.0564425 381.941 -0.0789321 380.9 0.0440884C378.835 0.36033 376.905 1.2651 375.338 2.65088C371.82 0.855499 367.844 0.166887 363.93 0.674895C360.017 1.1829 356.346 2.86394 353.398 5.49867C350.45 8.1334 348.361 11.5995 347.403 15.4447C346.446 19.2898 346.665 23.3356 348.031 27.054C345.719 29.7046 343.56 35.1153 346.243 38.1383V38.1383ZM349.514 35.2467C349.034 34.6991 349.514 32.9028 350.321 31.3913C351.297 32.8024 352.448 34.0832 353.745 35.2029C351.499 35.8601 350.016 35.8163 349.514 35.2467V35.2467ZM381.161 23.9214C380.171 27.8551 377.669 31.2344 374.204 33.319C371.84 34.7307 369.145 35.4867 366.396 35.5096C365.487 35.5028 364.581 35.4074 363.691 35.2248C367.113 33.1173 370.339 30.7052 373.331 28.0178C376.344 25.3461 379.117 22.4141 381.619 19.2555C381.71 20.8253 381.555 22.3996 381.161 23.9214V23.9214ZM381.358 4.44716C381.707 4.38935 382.066 4.42354 382.398 4.54639C382.731 4.66924 383.026 4.87657 383.255 5.14814C383.757 5.7177 383.604 7.20729 382.688 9.37597C381.704 7.86605 380.523 6.49564 379.177 5.30149C379.833 4.86021 380.577 4.56861 381.358 4.44716ZM351.608 16.4735C352.086 14.5149 352.948 12.6715 354.142 11.0506C355.337 9.42969 356.84 8.06365 358.566 7.03205C360.93 5.60465 363.636 4.84763 366.396 4.84146C369.038 4.82316 371.638 5.50386 373.935 6.81513C376.233 8.12639 378.145 10.022 379.482 12.3113C379.771 12.7742 380.026 13.2574 380.245 13.7571C377.44 17.7974 374.151 21.476 370.452 24.71C366.817 28.0684 362.78 30.9602 358.435 33.319C355.673 31.6152 353.523 29.0728 352.296 26.0601C351.068 23.0473 350.828 19.7205 351.608 16.5611V16.4735Z" fill="#FDFDFD"/>
<path d="M38.3545 16.7578C38.3545 18.4342 38.0778 19.9154 37.5244 21.2012C36.9873 22.487 36.1328 23.5693 34.9609 24.4482C33.7891 25.3271 32.2754 25.9945 30.4199 26.4502C28.5807 26.8896 26.359 27.1094 23.7549 27.1094H8.69141V40H5.63965V6.45508H23.7549C26.359 6.45508 28.5807 6.68294 30.4199 7.13867C32.2754 7.57812 33.7891 8.22917 34.9609 9.0918C36.1328 9.95443 36.9873 11.0286 37.5244 12.3145C38.0778 13.6003 38.3545 15.0814 38.3545 16.7578ZM35.2051 16.7578C35.2051 15.1628 34.9365 13.877 34.3994 12.9004C33.8786 11.9238 33.0648 11.1751 31.958 10.6543C30.8675 10.1172 29.4759 9.75911 27.7832 9.58008C26.1068 9.40104 24.113 9.31152 21.8018 9.31152H8.69141V24.2529H21.8018C22.6969 24.2529 23.6491 24.2611 24.6582 24.2773C25.6836 24.2773 26.6927 24.2285 27.6855 24.1309C28.6784 24.0169 29.6224 23.8298 30.5176 23.5693C31.429 23.2926 32.2266 22.8776 32.9102 22.3242C33.61 21.7708 34.1634 21.0465 34.5703 20.1514C34.9935 19.2562 35.2051 18.125 35.2051 16.7578ZM49.6582 28.4033C49.6582 29.917 49.7803 31.2191 50.0244 32.3096C50.2686 33.4001 50.7812 34.2952 51.5625 34.9951C52.3438 35.695 53.4668 36.2158 54.9316 36.5576C56.4128 36.8831 58.374 37.0459 60.8154 37.0459H75.9766V40H60.2051C57.5195 40 55.2979 39.7884 53.54 39.3652C51.7985 38.9258 50.4069 38.2585 49.3652 37.3633C48.3398 36.4518 47.6237 35.3044 47.2168 33.9209C46.8099 32.5374 46.6064 30.8936 46.6064 28.9893V6.45508H49.6582V28.4033ZM112.476 40V36.2891C111.304 36.9238 109.969 37.5098 108.472 38.0469C106.991 38.584 105.42 39.0479 103.76 39.4385C102.116 39.8291 100.423 40.1302 98.6816 40.3418C96.9401 40.5534 95.2311 40.6592 93.5547 40.6592C91.3737 40.6592 89.4124 40.4639 87.6709 40.0732C85.9456 39.6826 84.4808 39.1048 83.2764 38.3398C82.0719 37.5586 81.1442 36.5983 80.4932 35.459C79.8421 34.3034 79.5166 32.9688 79.5166 31.4551C79.5166 29.9577 79.891 28.6393 80.6396 27.5C81.4046 26.3444 82.487 25.3434 83.8867 24.4971C85.2865 23.6344 86.971 22.9102 88.9404 22.3242C90.9261 21.722 93.1396 21.2174 95.5811 20.8105C98.0225 20.3874 100.659 20.0456 103.491 19.7852C106.34 19.5085 109.334 19.2806 112.476 19.1016V16.5381C112.476 15.4964 112.28 14.5768 111.89 13.7793C111.499 12.9818 110.954 12.29 110.254 11.7041C109.554 11.1019 108.732 10.6055 107.788 10.2148C106.844 9.80794 105.819 9.48242 104.712 9.23828C103.621 8.99414 102.466 8.82324 101.245 8.72559C100.041 8.61165 98.8281 8.55469 97.6074 8.55469C95.9635 8.55469 94.4661 8.63607 93.1152 8.79883C91.7643 8.96159 90.5029 9.18945 89.3311 9.48242C88.1592 9.75911 87.0361 10.0846 85.9619 10.459C84.8877 10.8333 83.8053 11.2321 82.7148 11.6553V8.09082C84.9772 7.48861 87.3861 6.96777 89.9414 6.52832C92.513 6.07259 95.2393 5.84473 98.1201 5.84473C100.562 5.84473 102.84 6.05632 104.956 6.47949C107.072 6.88639 108.911 7.54557 110.474 8.45703C112.036 9.36849 113.265 10.5485 114.16 11.9971C115.055 13.4294 115.503 15.179 115.503 17.2461V40H112.476ZM112.476 21.8115C107.153 22.1045 102.604 22.5195 98.8281 23.0566C95.0684 23.5938 91.9922 24.2529 89.5996 25.0342C87.207 25.8154 85.4492 26.7269 84.3262 27.7686C83.2194 28.8102 82.666 29.9902 82.666 31.3086C82.666 32.3828 82.9346 33.335 83.4717 34.165C84.0251 34.9951 84.8145 35.695 85.8398 36.2646C86.8652 36.818 88.1104 37.2412 89.5752 37.5342C91.04 37.8109 92.6839 37.9492 94.5068 37.9492C95.5811 37.9492 96.6878 37.8923 97.8271 37.7783C98.9827 37.6481 100.13 37.4772 101.27 37.2656C102.409 37.0378 103.532 36.7773 104.639 36.4844C105.745 36.1751 106.787 35.8415 107.764 35.4834C108.74 35.1253 109.627 34.7428 110.425 34.3359C111.239 33.929 111.922 33.514 112.476 33.0908V21.8115ZM159.009 40V17.8564C159.009 16.001 158.757 14.4792 158.252 13.291C157.764 12.0866 157.056 11.1344 156.128 10.4346C155.216 9.7347 154.102 9.24642 152.783 8.96973C151.465 8.69303 149.984 8.55469 148.34 8.55469C146.436 8.55469 144.564 8.79069 142.725 9.2627C140.902 9.71842 139.176 10.3044 137.549 11.0205C135.921 11.7204 134.424 12.5016 133.057 13.3643C131.689 14.2269 130.534 15.057 129.59 15.8545V40H126.538V6.45508H129.59V12.3389C130.729 11.6227 131.982 10.874 133.35 10.0928C134.733 9.29525 136.214 8.57096 137.793 7.91992C139.388 7.2526 141.089 6.70736 142.896 6.28418C144.702 5.861 146.606 5.64941 148.608 5.64941C150.871 5.64941 152.84 5.92611 154.517 6.47949C156.209 7.0166 157.609 7.78971 158.716 8.79883C159.839 9.79167 160.677 11.0042 161.23 12.4365C161.784 13.8525 162.061 15.4395 162.061 17.1973V40H159.009ZM207.031 38.2422C205.664 38.6654 204.395 39.0316 203.223 39.3408C202.051 39.6338 200.895 39.8698 199.756 40.0488C198.617 40.2441 197.453 40.3825 196.265 40.4639C195.093 40.5615 193.799 40.6104 192.383 40.6104C189.095 40.6104 186.125 40.2116 183.472 39.4141C180.819 38.6165 178.556 37.4772 176.685 35.9961C174.829 34.4987 173.397 32.6921 172.388 30.5762C171.379 28.4603 170.874 26.084 170.874 23.4473C170.874 20.8919 171.354 18.5482 172.314 16.416C173.291 14.2839 174.65 12.4528 176.392 10.9229C178.133 9.3929 180.216 8.20475 182.642 7.3584C185.067 6.51204 187.744 6.08887 190.674 6.08887C193.717 6.08887 196.427 6.49577 198.804 7.30957C201.18 8.12337 203.182 9.28711 204.81 10.8008C206.437 12.3145 207.674 14.1536 208.521 16.3184C209.367 18.4668 209.79 20.8919 209.79 23.5938V24.3506H174.023C174.202 26.4339 174.723 28.3138 175.586 29.9902C176.449 31.6667 177.669 33.0908 179.248 34.2627C180.843 35.4346 182.796 36.3379 185.107 36.9727C187.435 37.5911 190.145 37.9004 193.237 37.9004C194.556 37.9004 195.89 37.8109 197.241 37.6318C198.592 37.4528 199.886 37.2168 201.123 36.9238C202.36 36.6146 203.491 36.2728 204.517 35.8984C205.542 35.5078 206.38 35.109 207.031 34.7021V38.2422ZM206.787 21.6895C206.673 19.9805 206.291 18.3529 205.64 16.8066C204.989 15.2441 204.012 13.8688 202.71 12.6807C201.424 11.4925 199.78 10.5485 197.778 9.84863C195.793 9.14876 193.408 8.79883 190.625 8.79883C188.005 8.79883 185.71 9.14876 183.74 9.84863C181.771 10.5485 180.103 11.4925 178.735 12.6807C177.368 13.8525 176.294 15.2197 175.513 16.7822C174.731 18.3285 174.235 19.9642 174.023 21.6895H206.787ZM231.299 9.23828V40H228.271V9.23828H213.013V6.45508H246.558V9.23828H231.299ZM283.521 40V36.2891C282.349 36.9238 281.014 37.5098 279.517 38.0469C278.035 38.584 276.465 39.0479 274.805 39.4385C273.161 39.8291 271.468 40.1302 269.727 40.3418C267.985 40.5534 266.276 40.6592 264.6 40.6592C262.419 40.6592 260.457 40.4639 258.716 40.0732C256.991 39.6826 255.526 39.1048 254.321 38.3398C253.117 37.5586 252.189 36.5983 251.538 35.459C250.887 34.3034 250.562 32.9688 250.562 31.4551C250.562 29.9577 250.936 28.6393 251.685 27.5C252.45 26.3444 253.532 25.3434 254.932 24.4971C256.331 23.6344 258.016 22.9102 259.985 22.3242C261.971 21.722 264.185 21.2174 266.626 20.8105C269.067 20.3874 271.704 20.0456 274.536 19.7852C277.384 19.5085 280.379 19.2806 283.521 19.1016V16.5381C283.521 15.4964 283.325 14.5768 282.935 13.7793C282.544 12.9818 281.999 12.29 281.299 11.7041C280.599 11.1019 279.777 10.6055 278.833 10.2148C277.889 9.80794 276.864 9.48242 275.757 9.23828C274.666 8.99414 273.511 8.82324 272.29 8.72559C271.086 8.61165 269.873 8.55469 268.652 8.55469C267.008 8.55469 265.511 8.63607 264.16 8.79883C262.809 8.96159 261.548 9.18945 260.376 9.48242C259.204 9.75911 258.081 10.0846 257.007 10.459C255.933 10.8333 254.85 11.2321 253.76 11.6553V8.09082C256.022 7.48861 258.431 6.96777 260.986 6.52832C263.558 6.07259 266.284 5.84473 269.165 5.84473C271.606 5.84473 273.885 6.05632 276.001 6.47949C278.117 6.88639 279.956 7.54557 281.519 8.45703C283.081 9.36849 284.31 10.5485 285.205 11.9971C286.1 13.4294 286.548 15.179 286.548 17.2461V40H283.521ZM283.521 21.8115C278.198 22.1045 273.649 22.5195 269.873 23.0566C266.113 23.5938 263.037 24.2529 260.645 25.0342C258.252 25.8154 256.494 26.7269 255.371 27.7686C254.264 28.8102 253.711 29.9902 253.711 31.3086C253.711 32.3828 253.979 33.335 254.517 34.165C255.07 34.9951 255.859 35.695 256.885 36.2646C257.91 36.818 259.155 37.2412 260.62 37.5342C262.085 37.8109 263.729 37.9492 265.552 37.9492C266.626 37.9492 267.733 37.8923 268.872 37.7783C270.028 37.6481 271.175 37.4772 272.314 37.2656C273.454 37.0378 274.577 36.7773 275.684 36.4844C276.79 36.1751 277.832 35.8415 278.809 35.4834C279.785 35.1253 280.672 34.7428 281.47 34.3359C282.284 33.929 282.967 33.514 283.521 33.0908V21.8115ZM322.437 9.04297C321.965 8.89648 321.305 8.74186 320.459 8.5791C319.629 8.40007 318.555 8.31055 317.236 8.31055C315.413 8.31055 313.696 8.53841 312.085 8.99414C310.49 9.43359 309.001 10.0358 307.617 10.8008C306.25 11.5658 304.98 12.4609 303.809 13.4863C302.637 14.4954 301.579 15.5697 300.635 16.709V40H297.583V6.45508H300.635V13.291C301.725 12.168 302.905 11.1344 304.175 10.1904C305.461 9.24642 306.812 8.44076 308.228 7.77344C309.644 7.08984 311.125 6.56087 312.671 6.18652C314.233 5.7959 315.845 5.60059 317.505 5.60059C318.075 5.60059 318.587 5.61686 319.043 5.64941C319.499 5.66569 319.914 5.69824 320.288 5.74707C320.679 5.77962 321.045 5.82031 321.387 5.86914C321.729 5.91797 322.078 5.97493 322.437 6.04004V9.04297ZM328.101 40V6.45508H331.152V40H328.101Z" fill="white"/>
</svg>
